<svg xmlns="http://www.w3.org/2000/svg" xmlns:xlink="http://www.w3.org/1999/xlink" version="1.1" width="256" height="256" viewBox="0 0 256 256" xml:space="preserve">

<defs>
</defs>
<g style="stroke: none; stroke-width: 0; stroke-dasharray: none; stroke-linecap: butt; stroke-linejoin: miter; stroke-miterlimit: 10; fill: none; fill-rule: nonzero; opacity: 1;" transform="translate(22.611673151750978 22.61167315175095) scale(2.33 2.33)" >
	<path d="M 45 90 c -0.806 0 -1.573 -0.348 -2.104 -0.954 l -7.356 -8.391 c -0.733 -0.836 -0.904 -1.985 -0.445 -2.998 c 0.459 -1.014 1.436 -1.644 2.549 -1.644 h 0.616 V 57.965 c 0 -2.127 1.731 -3.858 3.858 -3.858 h 5.764 c 2.127 0 3.858 1.731 3.858 3.858 v 18.048 h 0.616 c 1.112 0 2.09 0.63 2.549 1.644 s 0.288 2.163 -0.446 2.999 l -7.356 8.39 C 46.573 89.652 45.806 89.999 45 90 L 45 90 z M 37.876 78.917 L 45 87.042 l 7.124 -8.125 h -3.286 V 57.965 c 0 -0.527 -0.428 -0.955 -0.955 -0.955 h -5.764 c -0.527 0 -0.955 0.428 -0.955 0.955 v 20.952 H 37.876 z M 37.722 78.741 l -1.091 0.958 L 37.722 78.741 C 37.722 78.742 37.722 78.742 37.722 78.741 z" style="stroke: none; stroke-width: 1; stroke-dasharray: none; stroke-linecap: butt; stroke-linejoin: miter; stroke-miterlimit: 10; fill: rgb(255,255,255); fill-rule: nonzero; opacity: 1;" transform=" matrix(1 0 0 1 0 0) " stroke-linecap="round" />
	<path d="M 47.882 35.893 h -5.764 c -2.127 0 -3.858 -1.731 -3.858 -3.858 V 13.986 h -0.616 c -1.113 0 -2.089 -0.63 -2.549 -1.643 c -0.459 -1.013 -0.289 -2.163 0.445 -2.999 l 7.356 -8.391 C 43.428 0.347 44.194 0 45 0 h 0 c 0.806 0 1.572 0.347 2.103 0.953 l 7.356 8.39 c 0.734 0.837 0.905 1.986 0.446 2.999 c -0.459 1.014 -1.436 1.644 -2.549 1.644 h -0.616 v 18.049 C 51.741 34.162 50.01 35.893 47.882 35.893 z M 37.876 11.083 h 3.287 v 20.952 c 0 0.527 0.428 0.955 0.955 0.955 h 5.764 c 0.527 0 0.955 -0.428 0.955 -0.955 V 11.083 h 3.286 L 45 2.957 L 37.876 11.083 z M 52.277 11.258 C 52.277 11.258 52.277 11.258 52.277 11.258 l 1.091 -0.957 L 52.277 11.258 z" style="stroke: none; stroke-width: 1; stroke-dasharray: none; stroke-linecap: butt; stroke-linejoin: miter; stroke-miterlimit: 10; fill: rgb(255,255,255); fill-rule: nonzero; opacity: 1;" transform=" matrix(1 0 0 1 0 0) " stroke-linecap="round" />
	<path d="M 11.179 55.159 c -0.661 0 -1.31 -0.239 -1.835 -0.7 l -8.39 -7.356 C 0.348 46.573 0 45.806 0 45 c 0 -0.806 0.347 -1.573 0.953 -2.104 l 8.391 -7.357 c 0.837 -0.733 1.986 -0.902 2.999 -0.445 c 1.013 0.46 1.643 1.436 1.643 2.549 v 0.616 h 18.049 c 2.127 0 3.858 1.731 3.858 3.858 v 5.764 c 0 2.127 -1.731 3.858 -3.858 3.858 H 13.986 v 0.616 c 0 1.112 -0.63 2.09 -1.644 2.549 C 11.966 55.075 11.57 55.159 11.179 55.159 z M 11.258 52.277 l -0.957 1.091 L 11.258 52.277 C 11.258 52.277 11.258 52.277 11.258 52.277 L 11.258 52.277 z M 2.957 45 l 8.125 7.124 v -3.286 h 20.952 c 0.527 0 0.955 -0.428 0.955 -0.955 v -5.764 c 0 -0.527 -0.428 -0.955 -0.955 -0.955 H 11.083 v -3.287 L 2.957 45 z" style="stroke: none; stroke-width: 1; stroke-dasharray: none; stroke-linecap: butt; stroke-linejoin: miter; stroke-miterlimit: 10; fill: rgb(255,255,255); fill-rule: nonzero; opacity: 1;" transform=" matrix(1 0 0 1 0 0) " stroke-linecap="round" />
	<path d="M 78.821 55.159 c -0.391 0 -0.787 -0.084 -1.164 -0.254 c -1.014 -0.459 -1.644 -1.436 -1.644 -2.549 v -0.616 H 57.965 c -2.127 0 -3.858 -1.731 -3.858 -3.858 v -5.764 c 0 -2.127 1.731 -3.858 3.858 -3.858 h 18.048 v -0.616 c 0 -1.113 0.63 -2.09 1.644 -2.549 c 1.01 -0.459 2.162 -0.289 2.998 0.445 l 8.391 7.356 C 89.652 43.427 90 44.194 90 45 c -0.001 0.806 -0.348 1.572 -0.954 2.104 l -8.39 7.355 C 80.131 54.921 79.482 55.159 78.821 55.159 z M 78.742 52.277 L 78.742 52.277 l 0.957 1.091 L 78.742 52.277 z M 57.965 41.163 c -0.527 0 -0.955 0.428 -0.955 0.955 v 5.764 c 0 0.527 0.428 0.955 0.955 0.955 h 20.952 v 3.286 L 87.042 45 l -8.125 -7.123 v 3.287 H 57.965 z" style="stroke: none; stroke-width: 1; stroke-dasharray: none; stroke-linecap: butt; stroke-linejoin: miter; stroke-miterlimit: 10; fill: rgb(255,255,255); fill-rule: nonzero; opacity: 1;" transform=" matrix(1 0 0 1 0 0) " stroke-linecap="round" />
</g>
</svg>