<svg xmlns="http://www.w3.org/2000/svg" xmlns:xlink="http://www.w3.org/1999/xlink" version="1.1" width="256" height="256" viewBox="0 0 256 256" xml:space="preserve">

<defs>
</defs>
<g style="stroke: none; stroke-width: 0; stroke-dasharray: none; stroke-linecap: butt; stroke-linejoin: miter; stroke-miterlimit: 10; fill: none; fill-rule: nonzero; opacity: 1;" transform="translate(1.4065934065934016 1.4065934065934016) scale(2.81 2.81)" >
	<path d="M 68.545 39.72 c -0.071 -0.215 -0.272 -0.36 -0.498 -0.36 h -17.02 l -5.531 -16.457 c -0.072 -0.213 -0.271 -0.357 -0.496 -0.357 s -0.425 0.144 -0.496 0.357 L 38.972 39.36 h -17.02 c -0.226 0 -0.427 0.145 -0.498 0.36 c -0.071 0.215 0.005 0.451 0.187 0.585 L 35.39 50.422 l -5.238 16.348 c -0.069 0.214 0.007 0.449 0.188 0.582 c 0.182 0.135 0.428 0.137 0.612 0.006 L 45 57.464 l 14.048 9.894 c 0.091 0.064 0.196 0.096 0.302 0.096 c 0.109 0 0.218 -0.034 0.31 -0.102 c 0.182 -0.133 0.257 -0.367 0.189 -0.582 L 54.61 50.422 l 13.748 -10.117 C 68.54 40.171 68.616 39.935 68.545 39.72 z" style="stroke: none; stroke-width: 1; stroke-dasharray: none; stroke-linecap: butt; stroke-linejoin: miter; stroke-miterlimit: 10; fill: rgb(253,253,253); fill-rule: nonzero; opacity: 1;" transform=" matrix(1 0 0 1 0 0) " stroke-linecap="round" />
	<path d="M 61.624 36.947 c -0.105 0 -0.213 -0.017 -0.318 -0.053 c -0.523 -0.176 -0.806 -0.743 -0.63 -1.266 l 4.328 -12.877 c 0.176 -0.523 0.745 -0.804 1.267 -0.629 c 0.523 0.176 0.806 0.743 0.63 1.266 l -4.328 12.877 C 62.432 36.683 62.042 36.947 61.624 36.947 z" style="stroke: none; stroke-width: 1; stroke-dasharray: none; stroke-linecap: butt; stroke-linejoin: miter; stroke-miterlimit: 10; fill: rgb(255,255,255); fill-rule: nonzero; opacity: 1;" transform=" matrix(1 0 0 1 0 0) " stroke-linecap="round" />
	<path d="M 80.302 67.931 c -0.201 0 -0.403 -0.061 -0.576 -0.183 l -13.773 -9.701 l -3.637 2.562 c -0.453 0.317 -1.076 0.211 -1.394 -0.241 c -0.318 -0.452 -0.21 -1.076 0.241 -1.394 l 4.213 -2.967 c 0.346 -0.244 0.807 -0.244 1.152 0 l 11.911 8.39 l -4.442 -13.868 c -0.131 -0.408 0.014 -0.855 0.359 -1.11 l 11.598 -8.534 H 71.604 c -0.43 0 -0.812 -0.274 -0.948 -0.682 l -5.651 -16.814 c -0.176 -0.523 0.106 -1.09 0.63 -1.266 c 0.524 -0.175 1.091 0.106 1.267 0.629 l 5.422 16.132 H 89 c 0.432 0 0.815 0.277 0.95 0.688 s -0.01 0.861 -0.357 1.118 l -13.472 9.914 l 5.133 16.022 c 0.131 0.409 -0.014 0.856 -0.36 1.11 C 80.718 67.866 80.51 67.931 80.302 67.931 z" style="stroke: none; stroke-width: 1; stroke-dasharray: none; stroke-linecap: butt; stroke-linejoin: miter; stroke-miterlimit: 10; fill: rgb(255,255,255); fill-rule: nonzero; opacity: 1;" transform=" matrix(1 0 0 1 0 0) " stroke-linecap="round" />
	<path d="M 9.698 67.931 c -0.208 0 -0.416 -0.064 -0.592 -0.194 c -0.346 -0.254 -0.491 -0.701 -0.36 -1.11 l 5.133 -16.022 L 0.407 40.689 c -0.348 -0.256 -0.492 -0.707 -0.357 -1.118 S 0.568 38.884 1 38.884 h 16.677 L 23.1 22.751 c 0.176 -0.523 0.742 -0.804 1.267 -0.629 c 0.523 0.176 0.805 0.743 0.629 1.267 l -5.652 16.814 c -0.137 0.407 -0.518 0.681 -0.948 0.681 H 4.046 l 11.598 8.534 c 0.346 0.255 0.491 0.702 0.359 1.11 l -4.443 13.867 l 11.912 -8.389 c 0.345 -0.244 0.807 -0.244 1.151 0 l 4.633 3.263 c 0.452 0.317 0.56 0.941 0.242 1.394 c -0.317 0.451 -0.941 0.559 -1.393 0.241 l -4.057 -2.857 l -13.774 9.701 C 10.101 67.87 9.9 67.931 9.698 67.931 z" style="stroke: none; stroke-width: 1; stroke-dasharray: none; stroke-linecap: butt; stroke-linejoin: miter; stroke-miterlimit: 10; fill: rgb(255,255,255); fill-rule: nonzero; opacity: 1;" transform=" matrix(1 0 0 1 0 0) " stroke-linecap="round" />
	<path d="M 28.376 36.947 c -0.418 0 -0.808 -0.264 -0.948 -0.682 L 23.1 23.388 c -0.176 -0.523 0.105 -1.09 0.629 -1.266 c 0.524 -0.175 1.091 0.106 1.266 0.629 l 4.328 12.877 c 0.176 0.523 -0.105 1.09 -0.629 1.266 C 28.589 36.93 28.481 36.947 28.376 36.947 z" style="stroke: none; stroke-width: 1; stroke-dasharray: none; stroke-linecap: butt; stroke-linejoin: miter; stroke-miterlimit: 10; fill: rgb(255,255,255); fill-rule: nonzero; opacity: 1;" transform=" matrix(1 0 0 1 0 0) " stroke-linecap="round" />
</g>
</svg>